<?xml version="1.0" encoding="UTF-8"?>
<svg id="Camada_2" data-name="Camada 2" xmlns="http://www.w3.org/2000/svg" viewBox="0 0 705.21 171.74">
  <defs>
    <style>
      .cls-1 {
        fill: #E3DED1;
        stroke: #E3DED1;
        stroke-miterlimit: 10;
        stroke-width: .75px;
      }
    </style>
  </defs>
  <g id="Camada_24_Preenchimento_de_Cor_1_Imagem" data-name="Camada 24 + Preenchimento de Cor 1 Imagem">
    <path class="cls-1" d="M86.76,150.51c0-.13,0-.26,0-.39,0-.08-.01-.17-.02-.25,0-.04-.01-.07-.02-.11-.03-.12-.06-.24-.09-.36-.01-.03-.05-.13-.07-.19-.02-.05-.05-.1-.06-.12-.06-.11-.12-.21-.18-.31-.01-.02-.05-.07-.09-.12-.04-.05-.09-.1-.1-.12-.13-.14-.27-.27-.41-.39,0,0,0,0,0,0-.01,0-.02-.02-.04-.03-.08-.06-.17-.11-.26-.16-.12-.07-.25-.13-.37-.19.03.03,0,.02-.15-.07-.04-.02-.08-.03-.13-.05-.09-.03-.18-.06-.26-.09-.07-.03-.13-.06-.19-.08-.21.04-.43.09-.64.13-1.09,1.2-2.26,2.34-3.51,3.38-1.78,1.85-3.78,3.5-5.93,4.92-5.73,4.7-12.99,7.57-20.39,7.57-.35,0-.7-.02-1.05-.04-.43.02-.86.04-1.3.04-1.91,0-3.76-.17-5.55-.49-8.85-1.07-16.31-5.78-21.34-12.5-3.96-3.9-6.05-7.61-6.72-8.86-2.93-5.49-3.84-10.59-4.17-13.99-.27-1.5-.44-3.04-.51-4.59-.02-.55-.03-1.1-.02-1.64-.04-.47-.09-.94-.11-1.42-.08-1.82.04-3.61.31-5.36-.03-3.64.68-7.16,1.98-10.43.62-2.88,1.69-5.64,3.13-8.2,2.05-4.49,5.19-8.47,9.04-11.63,2.55-2.33,5.46-4.29,8.59-5.75,4.55-2.43,9.63-3.83,14.78-3.83,1.59,0,3.14.13,4.64.36,3.41.35,6.61,1.24,9.56,2.57,2.6,1.05,5.01,2.43,7.19,4.12,3.98,2.75,7.27,6.4,9.71,10.63.28.31.56.62.85.9.06.06.12.11.18.16,0,0,.05.04.08.07.04.03.09.07.11.08.07.05.14.09.21.13.15.09.31.16.47.24,0,0,0,0,0,0,.08.03.16.06.24.09.25.09.51.14.77.2.09-.02.17-.04.26-.07,0,0,0,0,0,0,.01,0,.02-.01.04-.02.96-.58,1.66-1.01,1.97-1.88.3-.83.08-1.63-.05-2.01,0,0,0,0,0,0-.92-1.92-1.66-3.42-1.74-3.6-.32-.65-2.08-3.99-5.3-7.26-.61-.62-2.57-2.55-5.87-4.6-7.11-4.41-14.31-5.54-17.8-6.07-3.55-.53-9.65-1.37-17.41.2-2.65.54-8.29,1.92-14.54,5.61-8.71,5.14-13.75,11.89-16.17,15.72-5.63,8.88-6.79,17.15-7.43,22.11-1.31,10.13.32,17.89.78,19.96,1.99,8.78,5.63,14.73,6.46,16.04,1.22,1.94,5.71,8.79,14.28,14.67,3.13,2.15,8.16,5.53,15.65,7.24,7.62,1.74,13.79.83,17.8.2,2.97-.47,7.64-1.24,13.11-3.91,3.7-1.81,6.04-3.64,9.39-6.26,0,0,3.54-2.77,7.24-7.63.36-.48.8-1.06,1.14-1.71,0-.14,0-.29.03-.44-.07.51-.01.03,0-.09Z"/>
    <path class="cls-1" d="M292.2,112.25c-.7-7.24-1.38-11.7-3.22-16.58-3.11-8.24-7.21-12.88-9.99-15.6-2.07-2.03-6.47-5.9-12.82-8.71-8.31-3.68-15.56-3.4-17.02-3.33-8.36.43-13.69,2.92-17.49,5.06-3.2,1.81-6.57,4.22-9.32,7.46-4.05,4.77-4.67,9.32-5.15,9.15-.47-.17.08-4.4-.33-8.93-.1-1.1-.59-1.42-1.81-2.47-1.55-1.33-1.75-1.56-3.41-2.69-1.7-1.16-2.65-1.66-2.65-.13,0,7.43-.29,87.54,0,93.27,0,.18,2.65.12,4.39.13,2.12,0,3.05-.03,4.11-.02.27,0,1.34.09,1.35-.21.1-2.04.08-6.92.08-7.21.02-7.34-.07-50.9.05-53.58.06-1.42.12-4.19.28-5.1.32-1.86,1.37-4.97,3.39-8.44,1.5-3.05,3.61-5.8,6.13-8.12,5.21-5.59,12.67-9.19,20.32-9.19.04,0,.09,0,.13,0,3.1-.14,7.2.19,11.46,2.15,1.25.57,2.38,1.21,3.43,1.9,8.7,4.61,14.44,13.89,14.91,24.31.03.56.02,1.12,0,1.68.07.71.13,1.47.18,2.26.09.77.16,1.54.2,2.32.02.51.02,1.02.01,1.53.04.94.07,1.89.09,2.85.18,10.4-.22,13.36-.24,16.56-.11,12.85.07,16.24-.17,25.73-.02.63.3,1.96.95,3.23.95,1.83,11.82,9.31,12.26,7.51.42-1.7.33-12.99.4-19.05,0-.8.01-12.08.02-17.61,0-7.99-.2-16.56-.55-20.15Z"/>
    <path class="cls-1" d="M529.46,64.29h-4.84s-5.14,0-5.14,0v5.12h4.01l5.82.05.34,88.34s-.05.79.13,2.11c.36,2.58,5.43,6.73,9.25,8.12.36.17.7.25.98,0v-98.61h14.57c0-1.57.02-1.11,0-5.21h-14.31V27.27c-5.04,0-6.03,0-11.07,0l.26,37.01Z"/>
    <path class="cls-1" d="M576.11,64.05h-18.54s0,3.78,0,3.78v1.57h10.1l8.55.05.34,88.53s-.05.79.13,2.11c.36,2.58,5.39,6.53,9.2,7.92.36.17.7.25.98,0v-98.87h20.68c-.22-1.29-.85-1.91-2.74-4.02-.42-.47-.88-.85-1.3-1.17h-16.37V27.27c-5.04,0-6.25,0-11.29,0l.26,36.77Z"/>
    <path class="cls-1" d="M188.83,115.78c-.5-5.12-1.47-8.91-2.17-11.6-.86-3.3-1.52-5.86-2.96-9.2-2.15-5-4.63-8.64-6.25-10.66-4.43-5.51-6.99-7.29-9.86-9.11-1.96-1.25-5.09-3.2-9.65-4.7-4.49-1.47-8.12-1.75-10.96-1.96-2.55-.18-6.23-.43-10.7.26-7.38,1.14-12.35,3.56-16.11,5.8-3.94,2.35-8.84,5.74-12.85,11.15-2.06,2.78-3.59,5.78-4.7,7.96-1.06,2.08-2.36,4.66-3.52,8.22-.24.72-1.26,3.91-1.96,8.48-.42,2.73-1.08,8.36-.39,15.52.34,3.48.85,8.43,3.13,14.48,2.16,5.73,4.84,9.61,5.61,10.7,3.89,5.49,8.02,8.69,10.3,10.43,2.62,2,5.57,4.25,10.04,6,4.5,1.76,13.62,2.75,13.62,2.75,0,0,9.43.48,14.16-.53,5.97-1.28,10.06-3.81,12.78-5.48.96-.59,5.23-3.24,9.76-7.82,1.6-1.62,3.58-3.65,5.54-6.78,1.37-2.19,2.21-4.07,2.74-5.28,1.2-2.73,1.86-4.94,2.48-7.04.51-1.72.96-3.28,1.37-5.41.6-3.15.71-5.58.78-7.37.06-1.41.14-4.64-.26-8.8ZM183.11,132.04c-.73,3.35-1.94,8.69-5.44,14.24-6.25,9.93-17.72,16.74-29.51,16.74-1.22,0-2.42-.08-3.6-.2-18.62-.14-30-14.95-33.97-32.93-.4-1.76-.76-6.77-.73-7.44,0-.03,0-2.49,0-2.57-.03-.62.29-5.14.94-10.76.97-5.49,2.09-9.16,2.71-10.61,6.33-13.21,18.43-23.33,32.69-23.33,10.75,0,19.93,4.91,26.1,12.48,2.53,2.72,4.65,5.83,6.26,9.25,1.32,2.42,2.36,5.02,3.12,7.74,1.09,3.4,2.27,8.21,2.52,14.07.28,6.45-.67,11.39-1.09,13.33Z"/>
    <path class="cls-1" d="M504.13,118.44c0-.48.01-1.21,0-2.09-.03-1.71.54-9.11-3.13-19.04-2.83-7.68-7.35-12.49-8.3-13.58-3.56-4.12-6.9-6.74-9.65-8.61-3.84-2.59-7.32-4.36-13.7-5.99-3.72-.95-6.73-1.33-10.48-1.3-2.56.03-5.96.08-10.3.91-6.68,1.28-11.45,3.62-13.04,4.43-5,2.57-8.44,5.46-10.17,7.04-4.64,4.23-7.21,8.32-8.61,10.57-3.89,6.26-5.42,11.63-5.74,12.78-.85,3.08-1.87,8.08-2.06,10.03h-4.86c-1.28-.05-2.34.01-3.1.09-1.75.18-2.63.28-3.16.91-.51.61-.55,1.45-.59,2.25-.04.79.08,1.44.2,1.87.28.1,1.3.11,1.33.11.04,0,9.35,0,9.75,0-.1,1.15.11,2.69.26,4.51.39,4.62.38,5.08,1.58,10.23.93,3.97,2.4,7.3,4.22,10.7,1.21,2.26,3.27,5.49,7.12,9.78.87.96,3.47,4.14,7.61,7.18,1.28.94,5.21,3.82,10.89,6.26,3.06,1.31,7.04,2.63,12.67,3.39,3.49.47,8.49.69,14.22-.52,4.29-.91,7.73-2.01,9.9-2.99,1.5-.68,5.78-2.76,10.83-6.65,2.41-1.86,5.22-4.51,8.36-8.48,3.72-4.7,4.9-7.42,5.48-9.39.29-.99.46-1.83.56-2.41-.07-.24-.37-1.12-1.25-1.62-.94-.54-2.16-.43-3.13.26-.5.79-1.21,1.89-2.09,3.2-1.16,1.72-2.14,3.18-3.39,4.76-.89,1.13-2.39,3.02-4.7,5.15-.58.54-2.7,2.47-5.87,4.5-.82.53-2.78,1.75-5.48,3-.99.46-3.32,1.53-6.24,2.38-2.5.72-6.78,1.92-12.28,1.47-5.39-.45-9.26-2.26-11.22-3.2-5.19-2.49-8.4-5.62-10.37-7.57-1.31-1.3-5.06-5.17-8.22-11.28-.59-1.15-2.84-5.62-4.24-12-.95-4.33-1.18-8.09-1.19-10.9l81.58-.14ZM422.63,109.81c.16-2.97.52-5.21.62-5.84.35-2.12.87-5.17,2.35-8.87.23-.58,1.06-2.62,2.51-5.12,2.42-4.18,4.95-6.85,5.58-7.5,1.28-1.32,3.01-3.1,5.76-4.81,2.22-1.39,4.13-2.12,5.46-2.62.98-.37,3.28-1.19,6.36-1.76.84-.15,3.75-.66,7.63-.62.79,0,3.54.06,7.11.68,1.82.32,4.02.71,6.78,1.73,3.07,1.13,5.2,2.43,6.55,3.26,2.72,1.68,4.7,3.34,5.84,4.37,2.16,1.95,3.69,3.76,4.63,4.96,1.63,2.08,2.64,3.8,3.39,5.09.89,1.53,2.32,4.01,3.59,7.5,1.34,3.69,1.7,6.29,1.83,7.5.31,2.93.47,4.63-.57,5.48-.96.78-2.8.76-5.71.68-.27,0-.44-.01-.46-.01-5.04-.01-7.36.05-12.51.08-8.56.05-14.98.03-21.75.03-7.08,0-14.5.24-24.68.16-.15,0-.36,0-.66,0-4.14.01-7.42-.06-9.7-.13-.03-1.14-.02-2.58.07-4.24Z"/>
    <g>
      <path class="cls-1" d="M69.74,32.25V.38h12.26c2.03,0,3.8.31,5.31.94,1.51.63,2.67,1.55,3.5,2.76.83,1.22,1.24,2.67,1.24,4.36,0,1.38-.35,2.67-1.04,3.85-.69,1.18-1.9,2.25-3.61,3.2,2.22.71,3.81,1.73,4.77,3.06s1.44,2.92,1.44,4.75-.37,3.33-1.12,4.63c-.75,1.29-1.9,2.34-3.48,3.13-1.57.79-3.46,1.19-5.66,1.19h-13.61ZM72.89,3.06v11.33h9.51c1.37,0,2.54-.24,3.51-.71s1.73-1.14,2.27-1.99c.54-.85.8-1.88.8-3.07,0-.95-.17-1.78-.5-2.5-.33-.71-.82-1.3-1.46-1.76-.64-.46-1.46-.79-2.47-1-1.01-.2-2.27-.31-3.77-.31h-7.91ZM72.89,17.1v12.58h10.14c1.44,0,2.71-.23,3.81-.7s1.97-1.17,2.62-2.12c.65-.95.97-2.13.97-3.55,0-1.9-.66-3.41-1.99-4.53-1.33-1.12-3.09-1.68-5.29-1.68h-10.26Z"/>
      <path class="cls-1" d="M136.77,32.25h-3.93l-4.38-6.74c-1.82-2.79-3.11-4.59-3.89-5.39s-1.7-1.43-2.75-1.87c-1.06-.44-2.22-.66-3.5-.66h-4.69v14.65h-3.1V.38h13.68c2.08,0,3.85.34,5.31,1.02,1.46.68,2.58,1.65,3.36,2.9.78,1.26,1.17,2.78,1.17,4.57,0,5.08-3.14,7.92-9.43,8.51,2.31,1.16,4.3,2.99,5.96,5.49l6.2,9.38ZM113.63,3.05v11.95h8.57c5.74,0,8.62-2.03,8.62-6.09,0-.87-.15-1.67-.45-2.37-.3-.71-.78-1.35-1.46-1.92s-1.54-.98-2.61-1.21c-1.07-.23-2.38-.35-3.95-.35h-8.72Z"/>
      <path class="cls-1" d="M177.53,32.25h-3.47l-4.23-10.16h-15.17l-4.08,10.16h-3.33L160.46.38h3.22l13.85,31.88ZM168.77,19.59l-6.74-16.05-6.43,16.05h13.17Z"/>
      <path class="cls-1" d="M215.52.38l-12.14,31.88h-3.2L188.28.38h3.3l10.24,28.61L212.44.38h3.08Z"/>
      <path class="cls-1" d="M256.38,32.25h-3.47l-4.23-10.16h-15.17l-4.08,10.16h-3.33L239.31.38h3.22l13.85,31.88ZM247.63,19.59l-6.74-16.05-6.43,16.05h13.17Z"/>
    </g>
    <path class="cls-1" d="M392.65,150.51c0-.13,0-.26,0-.39,0-.08-.01-.17-.02-.25,0-.04-.01-.07-.02-.11-.03-.12-.06-.24-.09-.36-.01-.03-.05-.13-.07-.19-.02-.05-.05-.1-.06-.12-.06-.11-.12-.21-.18-.31-.01-.02-.05-.07-.09-.12-.04-.05-.09-.1-.1-.12-.13-.14-.27-.27-.41-.39,0,0,0,0,0,0-.01,0-.02-.02-.04-.03-.08-.06-.17-.11-.26-.16-.12-.07-.25-.13-.37-.19.03.03,0,.02-.15-.07-.04-.02-.08-.03-.13-.05-.09-.03-.18-.06-.26-.09-.07-.03-.13-.06-.19-.08-.21.04-.43.09-.64.13-1.09,1.2-2.26,2.34-3.51,3.38-1.78,1.85-3.78,3.5-5.93,4.92-5.73,4.7-12.99,7.57-20.39,7.57-.35,0-.7-.02-1.05-.04-.43.02-.86.04-1.3.04-1.91,0-3.76-.17-5.55-.49-8.85-1.07-16.31-5.78-21.34-12.5-3.96-3.9-6.05-7.61-6.72-8.86-2.93-5.49-3.84-10.59-4.17-13.99-.27-1.5-.44-3.04-.51-4.59-.02-.55-.03-1.1-.02-1.64-.04-.47-.09-.94-.11-1.42-.08-1.82.04-3.61.31-5.36-.03-3.64.68-7.16,1.98-10.43.62-2.88,1.69-5.64,3.13-8.2,2.05-4.49,5.19-8.47,9.04-11.63,2.55-2.33,5.46-4.29,8.59-5.75,4.55-2.43,9.63-3.83,14.78-3.83,1.59,0,3.14.13,4.64.36,3.41.35,6.61,1.24,9.56,2.57,2.6,1.05,5.01,2.43,7.19,4.12,3.98,2.75,7.27,6.4,9.71,10.63.28.31.56.62.85.9.06.06.12.11.18.16,0,0,.05.04.08.07.04.03.09.07.11.08.07.05.14.09.21.13.15.09.31.16.47.24,0,0,0,0,0,0,.08.03.16.06.24.09.25.09.51.14.77.2.09-.02.17-.04.26-.07,0,0,0,0,0,0,.01,0,.02-.01.04-.02.96-.58,1.66-1.01,1.97-1.88.3-.83.08-1.63-.05-2.01,0,0,0,0,0,0-.92-1.92-1.66-3.42-1.74-3.6-.32-.65-2.08-3.99-5.3-7.26-.61-.62-2.57-2.55-5.87-4.6-7.11-4.41-14.31-5.54-17.8-6.07-3.55-.53-9.65-1.37-17.41.2-2.65.54-8.29,1.92-14.54,5.61-8.71,5.14-13.75,11.89-16.17,15.72-5.63,8.88-6.79,17.15-7.43,22.11-1.31,10.13.32,17.89.78,19.96,1.99,8.78,5.63,14.73,6.46,16.04,1.22,1.94,5.71,8.79,14.28,14.67,3.13,2.15,8.16,5.53,15.65,7.24,7.62,1.74,13.79.83,17.8.2,2.97-.47,7.64-1.24,13.11-3.91,3.7-1.81,6.04-3.64,9.39-6.26,0,0,3.54-2.77,7.24-7.63.36-.48.8-1.06,1.14-1.71,0-.14,0-.29.03-.44-.07.51-.01.03,0-.09Z"/>
    <path class="cls-1" d="M704.52,116.13c-.5-5.12-1.47-8.91-2.17-11.6-.86-3.3-1.52-5.86-2.96-9.2-2.15-5-4.63-8.64-6.25-10.66-4.43-5.51-6.99-7.29-9.86-9.11-1.96-1.25-5.09-3.2-9.65-4.7-4.49-1.47-8.12-1.75-10.96-1.96-2.55-.18-6.23-.43-10.7.26-7.38,1.14-12.35,3.56-16.11,5.8-3.94,2.35-8.84,5.74-12.85,11.15-2.06,2.78-3.59,5.78-4.7,7.96-1.06,2.08-2.36,4.66-3.52,8.22-.24.72-1.26,3.91-1.96,8.48-.42,2.73-1.08,8.36-.39,15.52.34,3.48.85,8.43,3.13,14.48,2.16,5.73,4.84,9.61,5.61,10.7,3.89,5.49,8.02,8.69,10.3,10.43,2.62,2,5.57,4.25,10.04,6,4.5,1.76,13.62,2.75,13.62,2.75,0,0,9.43.48,14.16-.53,5.97-1.28,10.06-3.81,12.78-5.48.96-.59,5.23-3.24,9.76-7.82,1.6-1.62,3.58-3.65,5.54-6.78,1.37-2.19,2.21-4.07,2.74-5.28,1.2-2.73,1.86-4.94,2.48-7.04.51-1.72.96-3.28,1.37-5.41.6-3.15.71-5.58.78-7.37.06-1.41.14-4.64-.26-8.8ZM698.8,132.39c-.73,3.35-1.94,8.69-5.44,14.24-6.25,9.93-17.72,16.74-29.51,16.74-1.22,0-2.42-.08-3.6-.2-18.62-.14-30-14.95-33.97-32.93-.4-1.76-.76-6.77-.73-7.44,0-.03,0-2.49,0-2.57-.03-.62.29-5.14.94-10.76.97-5.49,2.09-9.16,2.71-10.61,6.33-13.21,18.43-23.33,32.69-23.33,10.75,0,19.93,4.91,26.1,12.48,2.53,2.72,4.65,5.83,6.26,9.25,1.32,2.42,2.36,5.02,3.12,7.74,1.09,3.4,2.27,8.21,2.52,14.07.28,6.45-.67,11.39-1.09,13.33Z"/>
  </g>
</svg>